<?xml version="1.0" encoding="UTF-8"?>
<svg width="512" height="512" viewBox="0 0 24 24" fill="none" xmlns="http://www.w3.org/2000/svg">
  <rect width="24" height="24" fill="#f5f5f5" />
  <path d="M6 2h12a2 2 0 0 1 2 2v16a2 2 0 0 1-2 2H6a2 2 0 0 1-2-2V4a2 2 0 0 1 2-2z" fill="#e0e0e0"
    stroke="#9e9e9e" stroke-width="1.5" />
  <path
    d="M6 2h12a2 2 0 0 1 2 2v16a2 2 0 0 1-2 2h-3v-3a1 1 0 0 0-1-1H8a1 1 0 0 0-1 1v3H6a2 2 0 0 1-2-2V4a2 2 0 0 1 2-2z"
    fill="#eeeeee" />
  <path d="M9 8h6M9 12h6" stroke="#9e9e9e" stroke-width="1.5" stroke-linecap="round" />
</svg>
